<svg width="219" height="50" viewBox="0 0 219 50" fill="none" xmlns="http://www.w3.org/2000/svg">
<path fill-rule="evenodd" clip-rule="evenodd" d="M0 7.48503C0 3.35116 3.35116 0 7.48503 0H42.515C46.6488 0 50 3.35116 50 7.48503V42.515C50 46.6488 46.6488 50 42.515 50H7.48503C3.35116 50 0 46.6488 0 42.515V7.48503ZM27.137 16.884C27.137 18.0238 26.2131 18.9477 25.0733 18.9477C23.9336 18.9477 23.0096 18.0238 23.0096 16.884C23.0096 15.7443 23.9336 14.8204 25.0733 14.8204C26.2131 14.8204 27.137 15.7443 27.137 16.884ZM25.0733 19.498C23.7208 19.498 22.6244 20.5944 22.6244 21.9469V25.3589C22.6244 26.7114 23.7208 27.8078 25.0733 27.8078C26.4258 27.8078 27.5222 26.7114 27.5222 25.3589V21.9469C27.5222 20.5944 26.4258 19.498 25.0733 19.498ZM23.3673 29.046C23.3673 28.6661 23.6753 28.3581 24.0552 28.3581C24.4352 28.3581 24.7431 28.6661 24.7431 29.046V34.5491C24.7431 34.9291 24.4352 35.237 24.0552 35.237C23.6753 35.237 23.3673 34.929 23.3673 34.5491V29.046ZM26.1189 28.3581C25.739 28.3581 25.431 28.6661 25.431 29.046V34.5491C25.431 34.929 25.739 35.237 26.1189 35.237C26.4988 35.237 26.8068 34.9291 26.8068 34.5491V29.046C26.8068 28.6661 26.4988 28.3581 26.1189 28.3581ZM27.9625 20.9013C27.9625 20.5214 28.2704 20.2134 28.6504 20.2134C29.0303 20.2134 29.3383 20.5214 29.3383 20.9013V26.4045C29.3383 26.7844 29.0303 27.0924 28.6504 27.0924C28.2704 27.0924 27.9625 26.7844 27.9625 26.4045V20.9013ZM21.4963 20.2134C21.1164 20.2134 20.8084 20.5214 20.8084 20.9013V26.4045C20.8084 26.7844 21.1164 27.0924 21.4963 27.0924C21.8762 27.0924 22.1842 26.7844 22.1842 26.4045V20.9013C22.1842 20.5214 21.8762 20.2134 21.4963 20.2134Z" fill="#007FE7"/>
<path fill-rule="evenodd" clip-rule="evenodd" d="M0 7.48503C0 3.35116 3.35116 0 7.48503 0H42.515C46.6488 0 50 3.35116 50 7.48503V42.515C50 46.6488 46.6488 50 42.515 50H7.48503C3.35116 50 0 46.6488 0 42.515V7.48503ZM27.137 16.884C27.137 18.0238 26.2131 18.9477 25.0733 18.9477C23.9336 18.9477 23.0096 18.0238 23.0096 16.884C23.0096 15.7443 23.9336 14.8204 25.0733 14.8204C26.2131 14.8204 27.137 15.7443 27.137 16.884ZM25.0733 19.498C23.7208 19.498 22.6244 20.5944 22.6244 21.9469V25.3589C22.6244 26.7114 23.7208 27.8078 25.0733 27.8078C26.4258 27.8078 27.5222 26.7114 27.5222 25.3589V21.9469C27.5222 20.5944 26.4258 19.498 25.0733 19.498ZM23.3673 29.046C23.3673 28.6661 23.6753 28.3581 24.0552 28.3581C24.4352 28.3581 24.7431 28.6661 24.7431 29.046V34.5491C24.7431 34.9291 24.4352 35.237 24.0552 35.237C23.6753 35.237 23.3673 34.929 23.3673 34.5491V29.046ZM26.1189 28.3581C25.739 28.3581 25.431 28.6661 25.431 29.046V34.5491C25.431 34.929 25.739 35.237 26.1189 35.237C26.4988 35.237 26.8068 34.9291 26.8068 34.5491V29.046C26.8068 28.6661 26.4988 28.3581 26.1189 28.3581ZM27.9625 20.9013C27.9625 20.5214 28.2704 20.2134 28.6504 20.2134C29.0303 20.2134 29.3383 20.5214 29.3383 20.9013V26.4045C29.3383 26.7844 29.0303 27.0924 28.6504 27.0924C28.2704 27.0924 27.9625 26.7844 27.9625 26.4045V20.9013ZM21.4963 20.2134C21.1164 20.2134 20.8084 20.5214 20.8084 20.9013V26.4045C20.8084 26.7844 21.1164 27.0924 21.4963 27.0924C21.8762 27.0924 22.1842 26.7844 22.1842 26.4045V20.9013C22.1842 20.5214 21.8762 20.2134 21.4963 20.2134Z" fill="url(#paint0_linear)"/>
<path d="M68.5417 36C66.9632 36 65.6088 35.7083 64.4786 35.125C63.3678 34.5417 62.5103 33.6472 61.9062 32.4417C61.3021 31.2361 61 29.6903 61 27.8042V15.9625C61 15.7486 61.0585 15.5833 61.1754 15.4667C61.2923 15.35 61.4482 15.2917 61.6431 15.2917H62.1693C62.3836 15.2917 62.5493 15.35 62.6662 15.4667C62.7831 15.5833 62.8416 15.7486 62.8416 15.9625V27.8917C62.8416 30.0694 63.3483 31.6736 64.3616 32.7042C65.3945 33.7347 66.7878 34.25 68.5417 34.25C70.2761 34.25 71.65 33.7347 72.6634 32.7042C73.6962 31.6736 74.2127 30.0694 74.2127 27.8917V15.9625C74.2127 15.7486 74.2711 15.5833 74.3881 15.4667C74.5245 15.35 74.6901 15.2917 74.885 15.2917H75.4112C75.606 15.2917 75.7619 15.35 75.8789 15.4667C75.9958 15.5833 76.0543 15.7486 76.0543 15.9625V27.8042C76.0543 29.6903 75.7522 31.2361 75.1481 32.4417C74.5634 33.6472 73.7157 34.5417 72.6049 35.125C71.4941 35.7083 70.1397 36 68.5417 36Z" fill="#0D7CD7"/>
<path d="M81.6494 35.7083C81.4545 35.7083 81.2986 35.65 81.1817 35.5333C81.0647 35.4167 81.0063 35.2611 81.0063 35.0667V21.1833C81.0063 20.9889 81.0647 20.8333 81.1817 20.7167C81.2986 20.6 81.4545 20.5417 81.6494 20.5417H82.1463C82.3412 20.5417 82.4971 20.6 82.614 20.7167C82.7309 20.8333 82.7894 20.9889 82.7894 21.1833V22.5542C83.3156 21.8736 83.9489 21.3194 84.6894 20.8917C85.4495 20.4639 86.4531 20.25 87.7003 20.25C89.0255 20.25 90.1265 20.5417 91.0035 21.125C91.8999 21.6889 92.5625 22.4667 92.9912 23.4583C93.4394 24.4306 93.6635 25.5389 93.6635 26.7833V35.0667C93.6635 35.2611 93.6051 35.4167 93.4881 35.5333C93.3712 35.65 93.2153 35.7083 93.0204 35.7083H92.5235C92.3286 35.7083 92.1727 35.65 92.0558 35.5333C91.9389 35.4167 91.8804 35.2611 91.8804 35.0667V26.9292C91.8804 25.3736 91.5004 24.1583 90.7404 23.2833C89.9804 22.3889 88.8696 21.9417 87.408 21.9417C86.0243 21.9417 84.9038 22.3889 84.0463 23.2833C83.2084 24.1583 82.7894 25.3736 82.7894 26.9292V35.0667C82.7894 35.2611 82.7309 35.4167 82.614 35.5333C82.4971 35.65 82.3412 35.7083 82.1463 35.7083H81.6494Z" fill="#0D7CD7"/>
<path d="M104.007 36C102.643 36 101.483 35.7375 100.528 35.2125C99.5735 34.6681 98.8427 33.8903 98.336 32.8792C97.8488 31.8681 97.5857 30.6722 97.5468 29.2917C97.5273 29 97.5175 28.6111 97.5175 28.125C97.5175 27.6389 97.5273 27.25 97.5468 26.9583C97.5857 25.5583 97.8488 24.3625 98.336 23.3708C98.8427 22.3597 99.5735 21.5917 100.528 21.0667C101.483 20.5222 102.643 20.25 104.007 20.25C105.04 20.25 105.926 20.3958 106.667 20.6875C107.427 20.9597 108.051 21.3292 108.538 21.7958C109.025 22.2431 109.395 22.7389 109.649 23.2833C109.902 23.8278 110.038 24.3625 110.058 24.8875C110.077 25.0819 110.019 25.2375 109.882 25.3542C109.746 25.4708 109.59 25.5292 109.415 25.5292H109.006C108.811 25.5292 108.664 25.4903 108.567 25.4125C108.489 25.3153 108.401 25.15 108.304 24.9167C107.895 23.8083 107.33 23.0403 106.609 22.6125C105.907 22.1653 105.04 21.9417 104.007 21.9417C102.682 21.9417 101.581 22.35 100.704 23.1667C99.8463 23.9639 99.3883 25.2764 99.3299 27.1042C99.2909 27.7847 99.2909 28.4653 99.3299 29.1458C99.3883 30.9736 99.8463 32.2958 100.704 33.1125C101.581 33.9097 102.682 34.3083 104.007 34.3083C105.04 34.3083 105.907 34.0944 106.609 33.6667C107.33 33.2194 107.895 32.4417 108.304 31.3333C108.401 31.1 108.489 30.9444 108.567 30.8667C108.664 30.7694 108.811 30.7208 109.006 30.7208H109.415C109.59 30.7208 109.746 30.7792 109.882 30.8958C110.019 31.0125 110.077 31.1681 110.058 31.3625C110.038 31.7903 109.951 32.2181 109.795 32.6458C109.639 33.0736 109.395 33.4917 109.064 33.9C108.752 34.3083 108.362 34.6681 107.895 34.9792C107.427 35.2903 106.862 35.5333 106.199 35.7083C105.556 35.9028 104.825 36 104.007 36Z" fill="#0D7CD7"/>
<path d="M114.563 35.7083C114.369 35.7083 114.213 35.65 114.096 35.5333C113.979 35.4167 113.92 35.2611 113.92 35.0667V21.2125C113.92 21.0181 113.979 20.8625 114.096 20.7458C114.213 20.6097 114.369 20.5417 114.563 20.5417H115.031C115.226 20.5417 115.382 20.6097 115.499 20.7458C115.635 20.8625 115.703 21.0181 115.703 21.2125V22.5542C116.054 21.8736 116.561 21.3681 117.223 21.0375C117.886 20.7069 118.705 20.5417 119.679 20.5417H120.76C120.955 20.5417 121.111 20.6 121.228 20.7167C121.345 20.8333 121.404 20.9889 121.404 21.1833V21.5917C121.404 21.7861 121.345 21.9417 121.228 22.0583C121.111 22.175 120.955 22.2333 120.76 22.2333H119.504C118.334 22.2333 117.409 22.5736 116.727 23.2542C116.044 23.9347 115.703 24.8583 115.703 26.025V35.0667C115.703 35.2611 115.635 35.4167 115.499 35.5333C115.382 35.65 115.226 35.7083 115.031 35.7083H114.563Z" fill="#0D7CD7"/>
<path d="M127.947 36C127.011 36 126.144 35.8056 125.345 35.4167C124.566 35.0278 123.932 34.5125 123.445 33.8708C122.958 33.2097 122.714 32.4708 122.714 31.6542C122.714 30.3319 123.25 29.2722 124.322 28.475C125.394 27.6778 126.787 27.1625 128.502 26.9292L133.121 26.2875V25.2667C133.121 24.2361 132.799 23.4292 132.156 22.8458C131.533 22.2431 130.529 21.9417 129.145 21.9417C128.132 21.9417 127.314 22.1458 126.69 22.5542C126.066 22.9431 125.638 23.4583 125.404 24.1C125.306 24.3917 125.121 24.5375 124.848 24.5375H124.381C124.147 24.5375 123.981 24.4792 123.884 24.3625C123.786 24.2264 123.738 24.0708 123.738 23.8958C123.738 23.6236 123.835 23.2833 124.03 22.875C124.244 22.4667 124.566 22.0681 124.995 21.6792C125.423 21.2708 125.979 20.9306 126.661 20.6583C127.343 20.3861 128.171 20.25 129.145 20.25C130.295 20.25 131.24 20.4056 131.981 20.7167C132.741 21.0278 133.326 21.4361 133.735 21.9417C134.163 22.4278 134.466 22.9722 134.641 23.575C134.816 24.1778 134.904 24.7708 134.904 25.3542V35.0667C134.904 35.2611 134.846 35.4167 134.729 35.5333C134.612 35.65 134.456 35.7083 134.261 35.7083H133.764C133.569 35.7083 133.413 35.65 133.296 35.5333C133.179 35.4167 133.121 35.2611 133.121 35.0667V33.6958C132.887 34.0458 132.556 34.3958 132.127 34.7458C131.698 35.0958 131.143 35.3972 130.461 35.65C129.798 35.8833 128.96 36 127.947 36ZM128.239 34.3083C129.136 34.3083 129.954 34.1139 130.695 33.725C131.435 33.3361 132.02 32.7431 132.449 31.9458C132.897 31.1292 133.121 30.1083 133.121 28.8833V27.8917L129.35 28.4167C127.752 28.6306 126.544 29 125.725 29.525C124.907 30.05 124.498 30.7111 124.498 31.5083C124.498 32.15 124.683 32.675 125.053 33.0833C125.423 33.4917 125.891 33.8028 126.456 34.0167C127.041 34.2111 127.635 34.3083 128.239 34.3083Z" fill="#0D7CD7"/>
<path d="M140.17 35.7083C139.975 35.7083 139.819 35.65 139.702 35.5333C139.585 35.4167 139.526 35.2611 139.526 35.0667V21.1833C139.526 20.9889 139.585 20.8333 139.702 20.7167C139.819 20.6 139.975 20.5417 140.17 20.5417H140.667C140.861 20.5417 141.017 20.6 141.134 20.7167C141.251 20.8333 141.31 20.9889 141.31 21.1833V22.2042C141.797 21.5819 142.372 21.1056 143.034 20.775C143.716 20.425 144.535 20.25 145.49 20.25C147.672 20.25 149.231 21.1639 150.167 22.9917C150.615 22.1556 151.268 21.4944 152.125 21.0083C153.002 20.5028 154.006 20.25 155.136 20.25C156.169 20.25 157.095 20.4931 157.913 20.9792C158.751 21.4458 159.404 22.1458 159.872 23.0792C160.359 24.0125 160.602 25.1792 160.602 26.5792V35.0667C160.602 35.2611 160.544 35.4167 160.427 35.5333C160.31 35.65 160.154 35.7083 159.959 35.7083H159.462C159.268 35.7083 159.112 35.65 158.995 35.5333C158.878 35.4167 158.819 35.2611 158.819 35.0667V26.8708C158.819 25.5875 158.634 24.5958 158.264 23.8958C157.894 23.1764 157.406 22.6708 156.802 22.3792C156.198 22.0875 155.545 21.9417 154.844 21.9417C154.259 21.9417 153.665 22.0875 153.061 22.3792C152.457 22.6708 151.95 23.1764 151.541 23.8958C151.151 24.5958 150.956 25.5875 150.956 26.8708V35.0667C150.956 35.2611 150.898 35.4167 150.781 35.5333C150.664 35.65 150.508 35.7083 150.313 35.7083H149.816C149.621 35.7083 149.465 35.65 149.348 35.5333C149.231 35.4167 149.173 35.2611 149.173 35.0667V26.8708C149.173 25.5875 148.978 24.5958 148.588 23.8958C148.199 23.1764 147.702 22.6708 147.097 22.3792C146.493 22.0875 145.86 21.9417 145.197 21.9417C144.613 21.9417 144.018 22.0875 143.414 22.3792C142.81 22.6708 142.303 23.1764 141.894 23.8958C141.504 24.5958 141.31 25.5778 141.31 26.8417V35.0667C141.31 35.2611 141.251 35.4167 141.134 35.5333C141.017 35.65 140.861 35.7083 140.667 35.7083H140.17Z" fill="#0D7CD7"/>
<path d="M165.833 35.7083C165.638 35.7083 165.482 35.65 165.365 35.5333C165.248 35.4167 165.19 35.2611 165.19 35.0667V21.1833C165.19 20.9889 165.248 20.8333 165.365 20.7167C165.482 20.6 165.638 20.5417 165.833 20.5417H166.33C166.525 20.5417 166.681 20.6 166.797 20.7167C166.914 20.8333 166.973 20.9889 166.973 21.1833V22.2042C167.46 21.5819 168.035 21.1056 168.698 20.775C169.38 20.425 170.198 20.25 171.153 20.25C173.336 20.25 174.895 21.1639 175.83 22.9917C176.278 22.1556 176.931 21.4944 177.789 21.0083C178.665 20.5028 179.669 20.25 180.799 20.25C181.832 20.25 182.758 20.4931 183.576 20.9792C184.414 21.4458 185.067 22.1458 185.535 23.0792C186.022 24.0125 186.266 25.1792 186.266 26.5792V35.0667C186.266 35.2611 186.207 35.4167 186.09 35.5333C185.973 35.65 185.817 35.7083 185.623 35.7083H185.126C184.931 35.7083 184.775 35.65 184.658 35.5333C184.541 35.4167 184.483 35.2611 184.483 35.0667V26.8708C184.483 25.5875 184.297 24.5958 183.927 23.8958C183.557 23.1764 183.07 22.6708 182.466 22.3792C181.861 22.0875 181.209 21.9417 180.507 21.9417C179.922 21.9417 179.328 22.0875 178.724 22.3792C178.12 22.6708 177.613 23.1764 177.204 23.8958C176.814 24.5958 176.619 25.5875 176.619 26.8708V35.0667C176.619 35.2611 176.561 35.4167 176.444 35.5333C176.327 35.65 176.171 35.7083 175.976 35.7083H175.479C175.284 35.7083 175.128 35.65 175.012 35.5333C174.895 35.4167 174.836 35.2611 174.836 35.0667V26.8708C174.836 25.5875 174.641 24.5958 174.252 23.8958C173.862 23.1764 173.365 22.6708 172.761 22.3792C172.157 22.0875 171.523 21.9417 170.861 21.9417C170.276 21.9417 169.682 22.0875 169.078 22.3792C168.473 22.6708 167.967 23.1764 167.557 23.8958C167.168 24.5958 166.973 25.5778 166.973 26.8417V35.0667C166.973 35.2611 166.914 35.4167 166.797 35.5333C166.681 35.65 166.525 35.7083 166.33 35.7083H165.833Z" fill="#0D7CD7"/>
<path d="M196.495 36C194.604 36 193.104 35.3875 191.993 34.1625C190.882 32.9181 190.249 31.2944 190.093 29.2917C190.073 29 190.064 28.6111 190.064 28.125C190.064 27.6389 190.073 27.25 190.093 26.9583C190.19 25.6361 190.502 24.4694 191.028 23.4583C191.555 22.4472 192.276 21.6597 193.191 21.0958C194.127 20.5319 195.228 20.25 196.495 20.25C197.859 20.25 199.018 20.5514 199.973 21.1542C200.928 21.7569 201.659 22.6222 202.166 23.75C202.692 24.8778 202.955 26.2194 202.955 27.775V28.2125C202.955 28.4069 202.887 28.5625 202.75 28.6792C202.633 28.7958 202.477 28.8542 202.283 28.8542H191.876C191.876 28.8542 191.876 28.8931 191.876 28.9708C191.876 29.0486 191.876 29.1069 191.876 29.1458C191.915 30.0208 192.12 30.8569 192.49 31.6542C192.86 32.4319 193.386 33.0736 194.068 33.5792C194.751 34.0653 195.559 34.3083 196.495 34.3083C197.333 34.3083 198.024 34.1819 198.57 33.9292C199.135 33.6764 199.583 33.4042 199.915 33.1125C200.246 32.8014 200.46 32.5681 200.558 32.4125C200.733 32.1597 200.87 32.0139 200.967 31.975C201.065 31.9167 201.22 31.8875 201.435 31.8875H201.903C202.078 31.8875 202.224 31.9458 202.341 32.0625C202.477 32.1597 202.536 32.2958 202.516 32.4708C202.497 32.7431 202.341 33.0833 202.049 33.4917C201.776 33.8806 201.376 34.2694 200.85 34.6583C200.343 35.0472 199.72 35.3681 198.979 35.6208C198.239 35.8736 197.411 36 196.495 36ZM191.876 27.2208H201.172V27.1042C201.172 26.1319 200.987 25.2569 200.616 24.4792C200.246 23.7014 199.71 23.0889 199.009 22.6417C198.307 22.175 197.469 21.9417 196.495 21.9417C195.52 21.9417 194.682 22.175 193.981 22.6417C193.299 23.0889 192.773 23.7014 192.402 24.4792C192.051 25.2569 191.876 26.1319 191.876 27.1042V27.2208Z" fill="#0D7CD7"/>
<path d="M212.306 36C211.176 36 210.211 35.7958 209.412 35.3875C208.633 34.9792 207.999 34.4347 207.512 33.7542C207.025 33.0736 206.664 32.3153 206.43 31.4792C206.216 30.6431 206.089 29.7972 206.05 28.9417C206.031 28.65 206.021 28.3778 206.021 28.125C206.021 27.8722 206.031 27.6 206.05 27.3083C206.089 26.4528 206.216 25.6069 206.43 24.7708C206.664 23.9347 207.025 23.1764 207.512 22.4958C207.999 21.8153 208.633 21.2708 209.412 20.8625C210.211 20.4542 211.176 20.25 212.306 20.25C213.514 20.25 214.508 20.4736 215.288 20.9208C216.087 21.3681 216.73 21.9125 217.217 22.5542V15.6417C217.217 15.4472 217.275 15.2917 217.392 15.175C217.509 15.0583 217.665 15 217.86 15H218.357C218.552 15 218.708 15.0583 218.825 15.175C218.942 15.2917 219 15.4472 219 15.6417V35.0667C219 35.2611 218.942 35.4167 218.825 35.5333C218.708 35.65 218.552 35.7083 218.357 35.7083H217.86C217.665 35.7083 217.509 35.65 217.392 35.5333C217.275 35.4167 217.217 35.2611 217.217 35.0667V33.6958C216.73 34.3569 216.087 34.9111 215.288 35.3583C214.508 35.7861 213.514 36 212.306 36ZM212.481 34.3083C213.592 34.3083 214.489 34.0458 215.171 33.5208C215.853 32.9958 216.359 32.3444 216.691 31.5667C217.022 30.7694 217.197 29.9722 217.217 29.175C217.236 28.8833 217.246 28.5042 217.246 28.0375C217.246 27.5708 217.236 27.1917 217.217 26.9C217.197 26.1222 217.012 25.3542 216.661 24.5958C216.33 23.8375 215.824 23.2056 215.141 22.7C214.459 22.1944 213.573 21.9417 212.481 21.9417C211.351 21.9417 210.445 22.1944 209.763 22.7C209.1 23.2056 208.623 23.8667 208.33 24.6833C208.038 25.5 207.873 26.375 207.834 27.3083C207.814 27.8528 207.814 28.3972 207.834 28.9417C207.873 29.875 208.038 30.75 208.33 31.5667C208.623 32.3833 209.1 33.0444 209.763 33.55C210.445 34.0556 211.351 34.3083 212.481 34.3083Z" fill="#0D7CD7"/>
<defs>
<linearGradient id="paint0_linear" x1="50" y1="0" x2="0" y2="50" gradientUnits="userSpaceOnUse">
<stop stop-color="#007FE7"/>
<stop offset="1" stop-color="#0D1821" stop-opacity="0.63"/>
</linearGradient>
</defs>
</svg>
